<svg width="512" height="512" viewBox="0 0 50 50" fill="none" xmlns="http://www.w3.org/2000/svg">
  <defs>
    <linearGradient id="wonder_logo_gradient" x1="82.1797" y1="-14.8198" x2="45.1797" y2="66.6802" gradientUnits="userSpaceOnUse">
      <stop stop-color="#E9DBD5"/>
      <stop offset="0.125" stop-color="#EED4CB"/>
      <stop offset="0.25" stop-color="#EED2C8"/>
      <stop offset="0.375" stop-color="#EFCAC8"/>
      <stop offset="0.5" stop-color="#F3C2CC"/>
      <stop offset="0.625" stop-color="#F4A0CC"/>
      <stop offset="0.75" stop-color="#DB7DC7"/>
      <stop offset="0.875" stop-color="#818FD7"/>
      <stop offset="1" stop-color="#5695D9"/>
    </linearGradient>
  </defs>
  <path fill="url(#wonder_logo_gradient)" d="M41.4597 0.0253687C44.4773 -0.190175 47.3238 0.965131 48.9105 3.5931C50.7802 6.68999 49.5418 10.5722 48.2373 13.9464L46.4532 18.5608C44.88 23.422 44.88 28.6558 46.4532 33.517L46.765 34.4811C48.2715 39.1359 46.5334 44.227 42.4949 46.9887C39.4057 49.1012 35.3491 49.1488 32.211 47.1096C30.0311 45.6929 27.7922 44.039 25.1947 43.9278C25.1497 43.9259 25.1046 43.9246 25.0596 43.9237L24.9318 43.922C24.8446 43.9225 24.7574 43.9251 24.6703 43.9296C22.0739 44.0626 19.8324 45.6929 17.6525 47.1096C14.5144 49.1488 10.4578 49.1012 7.36861 46.9887C3.33013 44.227 1.59191 39.1358 3.09828 34.4811L3.41033 33.517C4.98356 28.6558 4.98355 23.422 3.41033 18.5608L1.62625 13.9464C0.321714 10.5722 -0.916679 6.68999 0.953054 3.5931C2.53973 0.965156 5.38606 -0.190146 8.4036 0.0253687C11.4843 0.245443 14.1121 3.09344 15.5611 5.34712L15.6498 5.46412C16.2619 6.27167 17.4807 6.2568 18.0729 5.43449C19.5135 3.21086 22.0902 1.623 24.9318 1.60098L25.0648 1.60315C27.8511 1.66942 30.3726 3.24562 31.7906 5.43449C32.3828 6.25685 33.6016 6.27173 34.2138 5.46412L34.3024 5.34712C35.7514 3.09346 38.379 0.245484 41.4597 0.0253687ZM18.1631 15.7182C16.2469 15.7182 14.6935 18.621 14.6935 22.2021C14.6935 25.7831 16.2469 28.6862 18.1631 28.6862C20.0792 28.6862 21.6326 25.7831 21.6326 22.2021C21.6326 18.621 20.0792 15.7182 18.1631 15.7182ZM31.7 15.7182C29.7839 15.7182 28.2307 18.6211 28.2307 22.2021C28.2307 25.783 29.7839 28.6861 31.7 28.6862C33.6162 28.6862 35.1696 25.7831 35.1696 22.2021C35.1696 18.621 33.6162 15.7182 31.7 15.7182Z"/>
</svg>
